PathFileType	4	(X/Y/Z)	C:/Users/beibeiliu/ov580/test_trc\sequence.23_training_dense_left.trc
DataRate	CameraRate	NumFrames	NumMarkers	Units	OrigDataRate	OrigDataStartFrame	OrigNumFrames
120	120	20	19	mm	120	30	59
Frame#	Time	ThumbCMC			ThumbMCP			ThumbIP			ThumbTip			IndexMCP			IndexPIP			IndexTip			MiddleMCP			MiddlePIP			MiddleTip			RingMCP			RingPIP			RingTip			PinkyMCP			PinkyPIP			PinkyTip			BackHand1			BackHand2			BackHand3	
		X0	Y0	Z0	X1	Y1	Z1	X2	Y2	Z2	X3	Y3	Z3	X4	Y4	Z4	X5	Y5	Z5	X6	Y6	Z6	X7	Y7	Z7	X8	Y8	Z8	X9	Y9	Z9	X10	Y10	Z10	X11	Y11	Z11	X12	Y12	Z12	X13	Y13	Z13	X14	Y14	Z14	X15	Y15	Z15	X16	Y16	Z16	X17	Y17	Z17	X18	Y18	Z18	
29	0.241667	-136.867	68.4679	170.599	-113.621	58.5984	148.081	-93.8734	58.2956	126.954	-95.3541	51.6127	99.4445	-130.211	90.4913	100.764	-105.507	80.0834	83.3616	-84.5203	54.6285	90.1621	-141.671	78.7063	84.6731	-115.778	64.8557	70.4255	-92.3025	40.2731	85.0501	-150.008	64.2018	82.2233	-125.347	50.4047	70.1742	-105.822	30.3067	84.3419	-162.532	49.4749	88.3724	-139	39.7599	70.8597	-113.433	27.7967	80.9865	-183.537	65.243	130.447	-193.836	57.721	155.247	-171.697	83.4318	154.185	
30	0.25	-137.443	77.5356	167.731	-105.999	74.5653	153.747	-92.2556	70.7215	134.201	-90.5044	61.2375	106.895	-120.456	96.1668	98.9789	-99.3541	83.537	86.9841	-74.812	60.4616	100.609	-132.681	77.8778	88.3193	-102.153	66.4295	76.0734	-81.2527	47.7562	94.7813	-136.561	62.1979	82.344	-107.781	48.4035	77.1204	-87.9752	40.5396	100.579	-147.306	44.8561	88.0364	-122.881	37.9713	77.8942	-93.5517	31.0178	95.9504	-178.397	59.1957	122.461	-189.947	52.8864	152.069	-171.215	82.6046	148.359	
31	0.258333	-144.948	89.6877	168.856	-110.423	93.9621	158.324	-94.8683	92.6824	139.233	-84.0165	82.1991	114.102	-126.39	99.2388	95.8686	-99.0538	98.0214	88.5842	-73.6287	86.108	106.798	-126.554	83.608	85.7874	-95.3711	79.2065	82.5487	-71.3813	71.2136	106.908	-129.986	61.1269	86.3615	-100.841	60.8064	82.9362	-79.0892	58.0693	109.586	-136.958	42.1363	93.1522	-105.946	43.2081	84.7862	-84.3045	46.433	102.777	-173.099	55.0734	122.415	-185.178	49.9893	151.657	-173.023	85.2758	144.612	
32	0.266667	-160.475	95.859	161.937	-130.436	107.586	154.477	-108.678	112.606	136.544	-97.196	97.0351	115.501	-144.304	101.959	93.2918	-112.596	104.824	84.2571	-87.5672	103.453	104.507	-136.107	80.8972	85.0632	-104.259	87.6536	79.1788	-81.2441	92.5728	105.973	-131.931	64.8742	86.3144	-102.073	69.6161	83.1915	-82.866	77.5015	109.014	-129.872	42.4644	94.7939	-104.541	55.7011	88.7279	-82.9264	68.094	108.589	-171.78	46.4632	120.303	-184.892	42.3666	150.262	-182.822	72.0868	138.833	
33	0.275	-182.79	95.4653	153.981	-154.341	113.365	142.837	-132.481	119.645	122.031	-118.295	107.099	108.052	-160.72	91.8681	84.1792	-133.057	103.924	75.2122	-110.644	114.647	95.8536	-148.806	78.9368	76.9449	-121.403	91.223	72.2598	-100.964	105.264	94.9728	-139.196	63.7287	81.2188	-113.727	75.7492	79.2158	-97.0197	93.1095	103.84	-130.658	44.5168	90.9575	-110.838	62.2971	87.5293	-91.301	80.1754	100.772	-177.139	40.8444	117.788	-187.76	33.8461	143.406	-196.353	61.4598	130.277	
34	0.283333	-199.279	81.3767	146.295	-176.267	106.248	133.955	-158.596	112.23	113.506	-140.057	101.184	95.8806	-180.527	78.8166	76.8242	-152.292	96.8003	67.0734	-134.075	110.107	81.5269	-164.183	67.4588	69.2421	-138.251	86.1684	64.7909	-121.886	107.545	88.0381	-150.541	51.2118	76.6534	-129.599	75.0303	70.4583	-115.974	96.0611	92.5914	-140.403	37.0227	92.4005	-121.437	60.3625	80.95	-110.895	85.7115	91.2287	-182.748	27.9583	116.299	-191.884	20.149	146.451	-205.104	44.4584	126.988	
35	0.291667	-214.506	63.1594	140.938	-195.544	86.5524	119.898	-180.993	93.3737	100.972	-161.05	87.7389	83.8531	-196.813	56.2849	67.7806	-176.221	80.8786	55.7337	-159.021	97.5958	68.1323	-174.578	45.1769	63.7982	-158.47	71.3362	56.4333	-145.844	97.3765	74.0799	-160.346	34.2816	71.7409	-144.071	61.2735	62.5726	-137.789	85.3806	78.9885	-147.018	26.0129	83.4232	-134.009	50.3372	73.8299	-126.627	74.9896	82.1077	-184.921	7.63976	113.182	-193.096	2.07747	144.012	-212.509	23.6827	126.722	
36	0.3	-227.14	49.2435	135.993	-210.458	71.5159	114.127	-199.426	81.0667	93.7979	-182.451	82.9329	70.7172	-209.303	39.5651	64.3453	-195.795	59.8619	49.3425	-177.423	84.2451	57.4124	-191.462	29.5878	61.1618	-178.31	54.4716	47.696	-162.163	82.3262	63.0407	-173.424	21.0003	69.3452	-160.506	45.0753	56.2714	-157.28	78.2257	72.2499	-159.258	17.2843	79.5191	-149.533	39.1461	67.7844	-144.296	69.1785	75.0397	-190.441	-4.40025	115.608	-199.073	-8.05632	141.996	-220.949	9.07615	124.787	
37	0.308333	-235.554	45.4136	133.249	-220.821	67.4319	110.242	-212.192	77.5131	90.9783	-199.248	80.0006	66.4834	-223.618	34.6512	60.1771	-211.274	55.7126	45.4935	-196.511	80.8797	51.5527	-205.706	22.182	61.5261	-192.012	46.8683	44.6693	-177.61	75.1907	56.7023	-187.449	14.9798	66.7844	-177.65	43.3246	51.2757	-168.358	72.8512	66.7619	-173.153	8.48254	81.1783	-162.162	31.2945	63.7477	-161.932	59.5138	63.8207	-207.088	-5.70506	116.931	-206.951	-11.6369	144.251	-236.331	7.01044	123.636	
38	0.316667	-243.604	56.1069	134.735	-228.108	81.2496	113.076	-219.905	90.0902	88.5619	-207.508	86.871	68.6914	-243.742	44.1509	64.4679	-229.881	66.1197	43.9139	-206.6	85.7236	48.9235	-229.729	33.5714	59.1575	-210.177	54.2972	41.0199	-189.871	82.5103	52.7417	-210.989	24.3283	61.7351	-195.48	46.2352	46.5076	-183.338	73.7667	58.3211	-194.316	16.0267	73.9254	-180.319	33.832	57.3853	-172.662	66.662	59.4576	-221.44	2.63322	114.667	-227.246	0.854344	141.881	-252.419	19.2925	125.877	
39	0.325	-243.033	73.8952	137.69	-223.661	90.7066	116.617	-215.119	101.088	87.4967	-206.543	96.8936	61.7927	-252.99	68.1916	63.1689	-238.956	81.6793	45.8355	-209.7	99.5271	49.1357	-241.487	50.5859	56.3009	-221.188	69.1154	39.5415	-196.427	86.4334	47.2068	-230.21	39.6595	60.871	-208.847	57.0342	44.0645	-186.532	79.7065	56.1833	-214.159	26.0523	67.6455	-198.653	42.7315	51.8359	-182.872	69.3319	56.3026	-243.716	19.6644	112.694	-240.446	14.7833	140.523	-262.416	43.2771	130.878	
40	0.333333	-226.584	91.5547	141.13	-205.725	98.0709	115.819	-197.391	106.489	90.168	-192.997	102.472	64.3178	-248	88.342	68.3508	-228.833	98.3316	49.7526	-198.361	100.163	50.2205	-245.242	71.469	60.6772	-223.476	81.1399	40.7367	-191.184	93.185	48.1334	-237.471	53.9493	61.0371	-215.597	66.0246	42.4948	-185.353	80.0616	54.7066	-229.774	38.854	69.905	-209.606	47.7801	49.652	-186.352	67.7632	50.4457	-251.113	35.5641	110.357	-249.093	30.9758	142.005	-259.04	62.9059	134.364	
41	0.341667	-198.065	92.6363	145.389	-177.05	90.4709	121.027	-166.207	99.8879	90.368	-170.163	94.7826	65.7382	-223.548	108.934	78.3099	-206.592	110.474	54.6215	-177.143	98.2651	51.8429	-230.246	91.4237	64.3733	-207.47	93.7641	42.7442	-173.581	83.4139	47.516	-231.174	70.9129	63.7806	-207.416	77.1425	44.1539	-175.211	75.5574	51.732	-229.096	51.5115	66.9206	-207.057	57.307	48.5349	-174.564	60.9688	50.0601	-245.145	57.5761	115.009	-242.607	50.0222	144.01	-237.53	82.6824	141.284	
42	0.35	-173.326	81.7965	143.344	-149.949	78.565	120.194	-145.683	80.4178	90.2517	-147.676	78.1531	68.2768	-192.562	114.971	83.4005	-173.532	109.403	56.7477	-148.393	88.4518	55.0537	-205.332	99.8844	67.22	-185.49	93.8371	44.1864	-152.83	76.2597	49.7915	-212.773	79.3564	66.5565	-189.576	73.6688	43.4458	-160.258	63.8886	50.8506	-217.539	59.296	68.4607	-195.236	59.1497	49.2437	-165.515	53.4166	50.7636	-229.275	67.2801	119.903	-228.976	55.7106	146.264	-213.144	85.8439	143.526	
43	0.358333	-153.017	67.5334	147.665	-135.417	56.8811	121.999	-124.035	56.0577	98.1786	-126.945	53.6744	68.4612	-164.451	99.6078	81.1118	-144.829	94.959	59.6921	-128.709	66.9556	57.0615	-180.235	89.6734	71.6792	-156.335	80.951	46.8743	-137.344	54.0152	52.265	-188.764	75.5668	65.7813	-170.867	64.7409	46.592	-146.082	40.6865	53.911	-198.307	58.6894	70.1494	-179.747	48.4703	52.1001	-154.378	34.8868	54.943	-210.345	69.9449	118.756	-217.623	55.8577	146.685	-190.154	82.5974	145.722	
44	0.366667	-141.647	51.2459	152.405	-118.291	33.5086	129.846	-105.264	28.8403	101.787	-112.722	24.9253	78.7139	-134.373	80.1169	85.4613	-118.715	66.3658	63.6523	-109.525	32.9282	67.3216	-151.885	73.685	74.8766	-136.249	56.6554	51.8514	-119.047	24.6952	60.2944	-167.232	59.138	66.0404	-151.095	42.6864	50.6088	-133.24	14.4983	63.1737	-182.653	46.039	75.7007	-161.897	28.0435	57.2711	-138.77	11.2114	68.3245	-192.221	63.8306	120.601	-198.277	58.4497	148.228	-168.683	77.7835	143.267	
45	0.375	-127.514	40.9976	154.938	-109.174	17.5216	135.112	-99.2664	7.39082	115.367	-97.4131	0.63143	92.7449	-113.347	61.3393	86.9632	-97.237	40.2537	70.4446	-94.1373	9.81311	77.6409	-130.195	54.727	73.3484	-117.116	28.4334	57.3127	-107.008	0.505308	70.0679	-146.57	45.5987	71.3335	-133.36	22.7513	57.6438	-120.512	-6.39285	77.0406	-164.891	32.1221	73.0386	-150.15	10.156	63.1663	-131.34	-8.29858	75.7825	-179.622	56.9225	118.574	-186.563	57.6488	148.732	-154.265	68.9018	144.176	
46	0.383333	-121.534	46.0068	155.731	-100.307	21.0153	144.493	-88.3028	9.71061	123.98	-90.0164	-0.677481	98.1056	-107.74	58.0389	88.643	-91.0713	37.5614	73.6032	-85.7543	6.2284	85.1255	-120.855	49.0048	74.8428	-101.797	22.2182	63.5117	-93.9786	-4.06843	80.3579	-141.745	33.6966	71.4881	-118.746	12.9732	63.9039	-109.081	-11.5511	84.9754	-153.849	21.6278	74.4082	-136.788	4.57759	68.5201	-119.248	-13.2002	86.9027	-170.569	52.935	115.345	-184.449	51.7346	144.578	-151.15	68.0733	141.002	
47	0.391667	-128.583	58.4359	158.478	-104.558	39.16	146.281	-81.2038	30.681	128.071	-79.038	17.5178	106.446	-111.422	63.7856	86.216	-90.0392	49.567	78.4672	-73.8632	23.7758	93.2403	-125.146	50.2606	77.4961	-99.628	28.7223	67.7272	-80.7045	9.04331	90.0978	-133.754	30.6326	72.407	-109.736	15.9925	71.2934	-94.4028	-1.46455	97.0493	-147.807	18.4101	81.1667	-123.134	2.05442	77.2547	-103.513	-5.49128	100.341	-175.157	44.3536	116.052	-187.646	48.4305	138.867	-162.37	70.7362	136.701	
48	0.4	-149.264	74.0106	155.057	-117.178	65.5751	145.199	-91.543	64.4506	127.497	-90.4772	45.7275	105.394	-128.268	76.9713	82.7284	-100.175	66.7251	76.358	-78.8299	52.1606	94.7133	-133.271	56.9904	74.7323	-99.3566	50.5146	70.9769	-77.1464	39.602	96.2489	-136.604	40.0418	76.2145	-105.281	27.535	74.7301	-87.4076	28.3313	104.045	-141.76	19.0676	79.4615	-112.667	16.2457	81.7725	-94.9328	16.5942	101.456	-183.201	38.9837	110.901	-195.25	39.3002	133.272	-182.26	67.0172	129.493	
